<svg xmlns="http://www.w3.org/2000/svg" fill="none" viewBox="0 0 24 24">
  <rect width="24" height="24" fill="#fff" rx="2"/>
  <path fill="#000" d="M20.625 6.693c.76 0 1.375.594 1.375 1.327s-.616 1.327-1.375 1.327c-.76 0-1.375-.594-1.375-1.327s.616-1.327 1.375-1.327Zm-11.977.241h2.467a.2.2 0 0 1 .185.12l2.919 6.924c.02.046.02.099 0 .145l-1.252 2.965c-.033.08-.151.08-.185 0L8.556 7.068a.097.097 0 0 1 .092-.134Zm7.717 0H13.9c-.072 0-.12.07-.093.133l4.226 10.02c.034.08.152.08.185 0l1.252-2.964a.186.186 0 0 0 0-.145l-2.92-6.923a.2.2 0 0 0-.185-.121Zm-6.264 10.132H7.634a.2.2 0 0 1-.185-.12l-2.918-6.923a.188.188 0 0 1 0-.146l1.251-2.964c.034-.08.151-.08.186 0l4.226 10.02c.027.063-.022.133-.093.133Zm-5.35-1.086c0-.733-.617-1.326-1.376-1.326-.76 0-1.375.593-1.375 1.326 0 .733.616 1.327 1.375 1.327.76 0 1.376-.594 1.376-1.327Z"/>
</svg>
